<svg xmlns="http://www.w3.org/2000/svg" viewBox="0 0 512 512">
  <defs>
    <linearGradient id="g" x1="0" y1="0" x2="1" y2="1">
      <stop offset="0" stop-color="#6366F1"/>
      <stop offset="1" stop-color="#10B981"/>
    </linearGradient>
  </defs>
  <rect x="40" y="40" width="432" height="432" rx="96" fill="#0A0F1E"/>
  <rect x="40" y="40" width="432" height="432" rx="96" fill="url(#g)" opacity="0.18"/>
  <path fill="url(#g)" d="M166 332c0 8.8 7.2 16 16 16h160c8.8 0 16-7.2 16-16v-24H166v24zm32-64c0 8.8 7.2 16 16 16h128c8.8 0 16-7.2 16-16v-24H198v24zm48-64c0 8.8 7.2 16 16 16h80c8.8 0 16-7.2 16-16v-24h-112v24z"/>
  <circle cx="176" cy="356" r="10" fill="#10B981"/>
  <circle cx="336" cy="228" r="10" fill="#6366F1"/>
  <path d="M156 164c0-8.8 7.2-16 16-16h168c8.8 0 16 7.2 16 16v44H156v-44z" fill="#111A33"/>
  <path d="M180 180h120" stroke="url(#g)" stroke-width="10" stroke-linecap="round"/>
</svg>
